External Loads File
version=1
nRows=39
nColumns=13
Range=5.000000e-03-10 seconds
endheader
time 	forceRightX 	forceRightY 	forceRightZ 	pointRightX 	pointRightY 	pointRightZ 	forceLeftX 	forceLeftY 	forceLeftZ 	pointLeftX 	pointLeftY 	pointLeftZ 		
0.005000 37.897247 133.272403 -0.000000 0.353486 0.351054 -0.124603 53.395094 160.952615 -0.000000 0.023904 0.286032 -0.359980
0.010000 37.507632 133.511072 -0.000000 0.353456 0.351091 -0.124610 52.788997 160.934988 -0.000000 0.023904 0.286048 -0.359987
0.015000 37.150581 133.779236 -0.000000 0.353420 0.351106 -0.124610 52.316684 160.929003 -0.000000 0.023886 0.286029 -0.359988
0.020000 36.824411 134.092415 -0.000000 0.353400 0.351145 -0.124618 52.021200 160.948124 -0.000000 0.023880 0.286021 -0.359997
0.025000 34.691552 134.939078 -0.000000 0.353328 0.350776 -0.124374 49.703920 161.705087 -0.000000 0.025709 0.281394 -0.357425
0.030000 33.787308 135.488856 -0.000000 0.353266 0.351347 -0.124385 48.994730 162.059368 -0.000000 0.025866 0.280300 -0.354679
0.035000 36.055070 135.241330 -0.000000 0.353215 0.351409 -0.124400 52.174839 161.304791 -0.000000 0.023804 0.285937 -0.359976
0.040000 35.933799 135.604721 -0.000000 0.353200 0.351437 -0.124391 52.546804 161.491702 -0.000000 0.023791 0.285937 -0.359987
0.045000 35.845553 135.937736 -0.000000 0.353198 0.351452 -0.124405 52.955325 161.688131 -0.000000 0.023770 0.285928 -0.359987
0.050000 35.778129 136.237064 -0.000000 0.353193 0.351457 -0.124418 53.388546 161.881016 -0.000000 0.023760 0.285925 -0.359989
0.055000 35.728451 136.499294 -0.000000 0.353206 0.351451 -0.124383 53.921680 162.075555 -0.000000 0.023734 0.285930 -0.360002
0.060000 35.684607 136.720600 -0.000000 0.353228 0.351465 -0.124375 54.640346 162.289896 -0.000000 0.023715 0.285954 -0.359998
0.065000 35.653933 136.889926 -0.000000 0.353250 0.351455 -0.124369 55.571966 162.518427 -0.000000 0.023696 0.285970 -0.359999
0.070000 35.635386 136.999807 -0.000000 0.353259 0.351439 -0.124361 56.606750 162.735125 -0.000000 0.023672 0.285981 -0.359991
0.075000 35.624070 137.044929 -0.000000 0.353282 0.351434 -0.124363 57.571811 162.910568 -0.000000 0.023686 0.285975 -0.360023
0.080000 35.652116 137.016817 -0.000000 0.353296 0.351442 -0.124356 58.389630 163.018921 -0.000000 0.023664 0.285993 -0.359932
0.085000 35.725778 136.929244 -0.000000 0.353323 0.351443 -0.124371 59.046834 163.071715 -0.000000 0.023659 0.285990 -0.359939
0.090000 35.847006 136.803079 -0.000000 0.353312 0.351442 -0.124356 59.595790 163.091787 -0.000000 0.023662 0.285970 -0.359931
0.095000 35.993291 136.654203 -0.000000 0.353326 0.351461 -0.124351 60.089381 163.101324 -0.000000 0.023668 0.285950 -0.359932
0.100000 36.117051 136.494228 -0.000000 0.353324 0.351494 -0.124337 60.539798 163.122384 -0.000000 0.023677 0.285911 -0.359925
0.105000 36.228200 136.319814 -0.000000 0.353316 0.351511 -0.124364 60.984696 163.148038 -0.000000 0.023690 0.285896 -0.359940
0.110000 36.290037 136.141763 -0.000000 0.353314 0.351549 -0.124376 61.357656 163.182692 -0.000000 0.023708 0.285856 -0.359938
0.115000 36.317977 135.953904 -0.000000 0.353297 0.351586 -0.124380 61.619680 163.189545 -0.000000 0.023691 0.285826 -0.359869
0.120000 36.276084 135.767974 -0.000000 0.353289 0.351627 -0.124385 61.646792 163.148053 -0.000000 0.023707 0.285766 -0.359871
0.125000 36.166115 135.601909 -0.000000 0.353275 0.351705 -0.124408 61.382158 163.041442 -0.000000 0.023724 0.285708 -0.359872
0.130000 36.064071 135.466055 -0.000000 0.353260 0.351685 -0.124413 60.948830 162.857886 -0.000000 0.023751 0.285656 -0.359876
0.135000 35.918188 135.400404 -0.000000 0.353242 0.351743 -0.124398 60.402919 162.669934 -0.000000 0.023784 0.285595 -0.359836
0.140000 35.787422 135.393629 -0.000000 0.353244 0.351783 -0.124440 59.947960 162.494837 -0.000000 0.023804 0.285542 -0.359834
0.145000 35.637176 135.434325 -0.000000 0.353224 0.351834 -0.124444 59.613569 162.365688 -0.000000 0.023828 0.285484 -0.359845
0.150000 35.482768 135.493910 -0.000000 0.353195 0.351883 -0.124431 59.369814 162.273414 -0.000000 0.023834 0.285451 -0.359845
0.155000 35.340817 135.562625 -0.000000 0.353200 0.351917 -0.124450 59.091347 162.208592 -0.000000 0.023861 0.285405 -0.359843
0.160000 35.263303 135.638937 -0.000000 0.353188 0.351969 -0.124459 58.714174 162.159398 -0.000000 0.023871 0.285382 -0.359836
0.165000 35.288570 135.719188 -0.000000 0.353186 0.351989 -0.124489 58.270875 162.122507 -0.000000 0.023876 0.285348 -0.359840
0.170000 35.384045 135.796339 -0.000000 0.353172 0.352027 -0.124458 57.807963 162.105216 -0.000000 0.023875 0.285324 -0.359831
0.175000 35.520211 135.849233 -0.000000 0.353203 0.352036 -0.124516 57.394110 162.092379 -0.000000 0.023876 0.285311 -0.359846
0.180000 35.619473 135.874304 -0.000000 0.353180 0.352065 -0.124480 57.005752 162.090069 -0.000000 0.023871 0.285304 -0.359876
0.185000 35.696117 135.859689 -0.000000 0.353156 0.352043 -0.124686 56.684989 162.081514 -0.000000 0.023848 0.285308 -0.359886
0.190000 35.712972 135.821064 -0.000000 0.353167 0.352053 -0.124662 56.365547 162.082584 -0.000000 0.023832 0.285313 -0.359876
0.195000 35.694166 135.762322 -0.000000 0.353166 0.352036 -0.124619 56.012024 162.083008 -0.000000 0.023816 0.285306 -0.359879
